<svg xmlns="http://www.w3.org/2000/svg" width="682.667" height="682.667" preserveAspectRatio="xMidYMid meet" version="1.0" viewBox="0 0 512 512"><metadata>Created by potrace 1.14, written by Peter Selinger 2001-2017</metadata><g fill="#000" stroke="none"><path d="M3060 3973 c0 -307 5 -585 10 -618 22 -145 31 -177 68 -253 63 -126 113 -191 212 -274 93 -77 153 -111 266 -149 95 -31 105 -33 244 -32 141 1 148 2 242 37 131 48 190 83 280 166 72 66 160 176 174 217 4 10 19 45 34 78 15 33 33 95 39 138 12 82 16 1247 5 1247 -3 0 -123 -117 -265 -260 l-260 -260 -255 0 -256 0 -260 260 c-144 143 -265 260 -270 260 -4 0 -8 -251 -8 -557z m531 -386 c45 -30 61 -63 56 -116 -8 -77 -76 -119 -161 -98 -74 19 -101 117 -50 184 43 57 99 68 155 30z m639 10 c33 -17 70 -74 70 -109 0 -16 -9 -46 -20 -67 -15 -30 -27 -40 -57 -48 -54 -13 -103 0 -135 36 -82 91 33 243 142 188z" transform="translate(0.000000,512.000000) scale(0.100000,-0.100000)"/><path d="M615 3987 c-106 -52 -163 -151 -152 -266 12 -138 108 -229 260 -246 117 -14 188 -59 230 -145 l22 -45 5 -1125 c6 -1243 2 -1171 71 -1285 54 -91 125 -155 230 -211 l94 -49 812 0 812 0 31 30 c48 46 52 58 51 180 0 96 -3 120 -21 155 -26 52 -96 128 -130 143 -14 6 -100 14 -192 17 l-166 5 175 130 c97 72 190 141 207 155 17 14 41 32 53 40 41 29 516 385 549 414 l34 28 0 -595 c0 -327 3 -607 6 -623 3 -16 20 -40 37 -54 30 -24 36 -25 212 -28 167 -2 182 -1 213 18 64 40 62 3 62 945 0 808 -1 855 -17 855 -10 -1 -54 -7 -98 -15 -169 -31 -359 -10 -540 59 -56 21 -153 73 -186 99 -15 12 -46 36 -69 52 -65 46 -161 153 -223 248 -31 47 -57 89 -57 93 0 3 -15 41 -34 83 -19 42 -38 98 -41 124 -4 27 -14 51 -21 54 -7 3 -79 0 -160 -6 -417 -30 -811 -236 -1073 -561 l-79 -98 -5 401 -5 402 -33 95 c-117 328 -380 533 -704 547 -102 4 -114 2 -160 -20z" transform="translate(0.000000,512.000000) scale(0.100000,-0.100000)"/></g></svg>